<?xml version="1.0" encoding="UTF-8" standalone="no"?>
<!-- Created with Inkscape (http://www.inkscape.org/) -->

<svg
   width="256"
   height="256"
   viewBox="0 0 67.733332 67.733333"
   version="1.1"
   id="svg1"
   inkscape:version="1.4 (86a8ad7, 2024-10-11)"
   sodipodi:docname="icon_inkscape.svg"
   inkscape:export-filename="icon.png"
   inkscape:export-xdpi="96"
   inkscape:export-ydpi="96"
   xmlns:inkscape="http://www.inkscape.org/namespaces/inkscape"
   xmlns:sodipodi="http://sodipodi.sourceforge.net/DTD/sodipodi-0.dtd"
   xmlns="http://www.w3.org/2000/svg"
   xmlns:svg="http://www.w3.org/2000/svg"
   xmlns:rdf="http://www.w3.org/1999/02/22-rdf-syntax-ns#"
   xmlns:cc="http://creativecommons.org/ns#">
  <sodipodi:namedview
     id="namedview1"
     pagecolor="#ffffff"
     bordercolor="#000000"
     borderopacity="0.25"
     inkscape:showpageshadow="2"
     inkscape:pageopacity="0.0"
     inkscape:pagecheckerboard="true"
     inkscape:deskcolor="#d1d1d1"
     inkscape:document-units="px"
     showguides="false"
     inkscape:zoom="2.8284271"
     inkscape:cx="127.80955"
     inkscape:cy="137.70905"
     inkscape:window-width="1920"
     inkscape:window-height="991"
     inkscape:window-x="-9"
     inkscape:window-y="-9"
     inkscape:window-maximized="1"
     inkscape:current-layer="layer3" />
  <defs
     id="defs1">
    <clipPath
       id="clip0">
      <rect
         width="24"
         height="24"
         fill="#ffffff"
         transform="translate(2.44141e-4)"
         id="rect1"
         x="0"
         y="0" />
    </clipPath>
  </defs>
  <g
     inkscape:label="background"
     inkscape:groupmode="layer"
     id="layer1">
    <circle
       style="fill:#0088b0;fill-opacity:1;stroke-width:0.262516"
       id="path1"
       cx="33.866665"
       cy="33.866665"
       r="29.765625" />
    <circle
       style="fill:#06047e;fill-opacity:1;stroke-width:0.233347"
       id="path1-8"
       cx="33.866665"
       cy="33.866665"
       r="26.458332" />
  </g>
  <g
     inkscape:groupmode="layer"
     id="layer2"
     inkscape:label="gear">
    <g
       clip-path="url(#clip0)"
       id="g2"
       transform="matrix(1.6536489,0,0,1.6536458,14.022513,14.022916)">
      <path
         fill-rule="evenodd"
         clip-rule="evenodd"
         d="m 19.8502,8.75 4.15,0.82996 V 14.42 l -4.15,0.83 2.35,3.52 L 18.7703,22.2 15.2502,19.85 14.4203,24 H 9.5802 L 8.75024,19.85 5.23022,22.2 1.80029,18.77 4.15027,15.25 2.44141e-4,14.42 V 9.57996 L 4.15027,8.75 1.80029,5.22998 5.23022,1.80005 8.75024,4.15002 9.5802,0 h 4.8401 l 0.8299,4.15002 3.5201,-2.34997 3.4299,3.42993 z m -1.5699,5.0699 4,-0.8099 v -2 l -4,-0.81 -0.5401,-1.29998 2.2901,-3.43005 -1.4301,-1.42993 -3.4299,2.28992 -1.3001,-0.53992 -0.8099,-4 h -2 l -0.8101,4 -1.3,0.53992 L 5.52026,4.04004 4.09021,5.46997 6.38025,8.90002 5.84021,10.2 l -4,0.81 v 2 l 4,0.8099 0.54004,1.3001 -2.29004,3.43 1.43005,1.43 3.42994,-2.2901 1.3,0.5401 0.8101,4 h 2 l 0.8099,-4 1.3001,-0.5401 3.4299,2.2901 1.4301,-1.43 -2.2901,-3.43 z M 10.0946,9.14807 c 0.5641,-0.37689 1.2272,-0.57812 1.9056,-0.57812 0.9089,0.00263 1.7798,0.36489 2.4225,1.00756 0.6427,0.64269 1.0049,1.51359 1.0076,2.42249 0,0.6784 -0.2012,1.3416 -0.5781,1.9056 -0.3769,0.5641 -0.9126,1.0037 -1.5393,1.2633 -0.6268,0.2597 -1.3165,0.3276 -1.9819,0.1952 C 10.6657,15.2318 10.0545,14.9051 9.57482,14.4254 9.09512,13.9457 8.76845,13.3345 8.6361,12.6692 8.50375,12.0038 8.57168,11.3141 8.83129,10.6874 9.0909,10.0606 9.53053,9.52496 10.0946,9.14807 Z m 0.9556,4.27373 c 0.2812,0.1879 0.6118,0.2882 0.95,0.2882 0.225,0.0013 0.448,-0.042 0.656,-0.1275 0.2081,-0.0854 0.3971,-0.2113 0.5562,-0.3703 0.159,-0.1591 0.2849,-0.3481 0.3704,-0.5562 0.0854,-0.2081 0.1287,-0.4311 0.1274,-0.656 0,-0.3382 -0.1003,-0.6689 -0.2882,-0.9501 -0.1879,-0.2812 -0.4549,-0.5003 -0.7673,-0.6297 -0.3125,-0.1295 -0.6564,-0.1633 -0.9881,-0.0973 -0.3317,0.066 -0.6363,0.2288 -0.8755,0.468 -0.2391,0.2391 -0.402,0.5438 -0.468,0.8755 -0.066,0.3317 -0.0321,0.6756 0.0973,0.988 0.1294,0.3125 0.3486,0.5795 0.6298,0.7674 z"
         fill="#424242"
         id="path1-88"
         style="fill:#000000;fill-opacity:1" />
    </g>
    <path
       style="fill:#cecece;fill-opacity:1;stroke-width:0.353553"
       d="m 122.14102,191.36077 c -0.0502,-1.14005 -4.92484,-24.25448 -5.16245,-24.47913 -0.16827,-0.1591 -2.05604,-1.02468 -4.19504,-1.92351 l -3.88908,-1.63424 -10.502654,7.07996 c -5.776457,3.89397 -10.631464,7.07995 -10.788905,7.07995 -0.359517,0 -8.583708,-8.22383 -8.583708,-8.58333 0,-0.14532 3.164077,-5.00643 7.031281,-10.80247 l 7.031281,-10.53826 -1.579706,-3.86469 c -0.868838,-2.12557 -1.79839,-4.0361 -2.065672,-4.24562 -0.267281,-0.20951 -5.98202,-1.4812 -12.699419,-2.82599 l -12.213454,-2.44506 v -6.0774 c 0,-5.48365 0.06045,-6.09502 0.618719,-6.25763 0.340295,-0.0991 5.981373,-1.24556 12.535729,-2.54763 l 11.917012,-2.3674 1.657394,-3.92855 c 0.911567,-2.1607 1.660967,-4.08808 1.665332,-4.28307 0.0044,-0.19498 -3.151414,-5.09428 -7.012843,-10.88732 l -7.020779,-10.532806 4.361825,-4.372324 4.361826,-4.372323 10.550624,7.039531 c 5.802847,3.871742 10.666107,7.039531 10.807257,7.039531 0.14114,0 2.04516,-0.744183 4.23115,-1.653741 l 3.97453,-1.653742 0.33765,-1.616627 c 0.1857,-0.889145 1.33486,-6.508923 2.55368,-12.488394 l 2.21604,-10.871767 h 6.09491 6.09492 l 0.34925,1.679378 c 0.19209,0.923659 1.3423,6.551808 2.55604,12.506999 l 2.20679,10.82762 4.13272,1.676775 4.13273,1.676775 10.71488,-7.149128 10.71488,-7.149128 4.36817,4.368165 4.36816,4.368164 -7.06982,10.605889 c -3.8884,5.833243 -7.06993,10.753223 -7.07005,10.933303 -1.2e-4,0.18008 0.72536,2.09967 1.61218,4.26575 l 1.6124,3.93834 11.91102,2.38746 c 6.55105,1.3131 12.18944,2.46689 12.52973,2.56397 0.55845,0.15933 0.61862,0.76827 0.61775,6.25149 l -9.7e-4,6.07497 -12.10823,2.44188 c -6.65953,1.34304 -12.29635,2.50939 -12.52625,2.59191 -0.4011,0.14395 -3.64785,7.45829 -3.64785,8.21792 0,0.20285 3.16779,5.11659 7.03953,10.91943 l 7.03953,10.55063 -4.37232,4.36182 -4.37232,4.36183 -10.53378,-7.02673 c -5.79357,-3.86471 -10.77242,-7.00731 -11.0641,-6.98357 -0.61513,0.0501 -7.47178,2.87053 -7.86713,3.23612 -0.14615,0.13514 -1.28582,5.32868 -2.5326,11.54118 -1.24678,6.21251 -2.37747,11.73299 -2.51264,12.26774 l -0.24576,0.97227 h -6.14886 c -3.38187,0 -6.15411,-0.11932 -6.16053,-0.26517 z m 11.11466,-42.50611 c 4.05295,-1.03657 6.69618,-2.58233 9.96817,-5.8294 4.30752,-4.27469 6.26091,-8.97783 6.24625,-15.03893 -0.0146,-6.013 -2.10145,-10.96048 -6.41348,-15.20465 -8.62417,-8.48845 -21.63845,-8.50151 -30.13706,-0.0302 -4.39802,4.38387 -6.36645,9.09433 -6.36645,15.23489 0,3.82515 0.60632,6.48585 2.25314,9.88729 1.44811,2.99103 5.91117,7.52472 8.99835,9.14075 4.71448,2.46787 10.3656,3.14094 15.45108,1.84029 z"
       id="path2"
       transform="scale(0.26458333)" />
  </g>
  <g
     inkscape:groupmode="layer"
     id="layer3"
     inkscape:label="down">
    <circle
       style="fill:#000000;fill-opacity:1;stroke-width:0.204099"
       id="path3"
       cx="44.979168"
       cy="44.979168"
       r="7.9375" />
    <circle
       style="fill:#00be30;fill-opacity:1;stroke-width:0.170082"
       id="path3-5"
       cx="44.979164"
       cy="44.979164"
       r="6.614583" />
    <path
       fill-rule="evenodd"
       clip-rule="evenodd"
       d="m 41.664995,45.598671 3.097783,3.097764 h 0.438091 l 3.09776,-3.097764 -0.438084,-0.438108 -2.568941,2.568939 V 41.26177 h -0.619553 v 6.467732 l -2.568968,-2.568939 z"
       fill="#c5c5c5"
       id="path1-1"
       style="stroke-width:0.619553;fill:#cfcfcf;fill-opacity:1" />
  </g>
  <metadata
     id="metadata1">
    <rdf:RDF>
      <cc:Work
         rdf:about="">
        <cc:license
           rdf:resource="http://creativecommons.org/licenses/by/4.0/" />
      </cc:Work>
      <cc:License
         rdf:about="http://creativecommons.org/licenses/by/4.0/">
        <cc:permits
           rdf:resource="http://creativecommons.org/ns#Reproduction" />
        <cc:permits
           rdf:resource="http://creativecommons.org/ns#Distribution" />
        <cc:requires
           rdf:resource="http://creativecommons.org/ns#Notice" />
        <cc:requires
           rdf:resource="http://creativecommons.org/ns#Attribution" />
        <cc:permits
           rdf:resource="http://creativecommons.org/ns#DerivativeWorks" />
      </cc:License>
    </rdf:RDF>
  </metadata>
</svg>
